<?xml version="1.0" encoding="utf-8"?>
<!-- Generator: Adobe Illustrator 28.3.0, SVG Export Plug-In . SVG Version: 6.00 Build 0)  -->
<svg version="1.1" id="Layer_1" fill="#ffffff" xmlns="http://www.w3.org/2000/svg"
	xmlns:xlink="http://www.w3.org/1999/xlink" x="0px" y="0px" viewBox="0 0 220 65"
	style="enable-background:new 0 0 220 65; background: white" xml:space="preserve">
	<style type="text/css">
		.st0 {
			fill: #231F20;
		}

		.st1 {
			fill: #A90F14;
		}

		.st2 {
			fill: #6D6E71;
		}
	</style>
	<g>
		<path class="st0" d="M143,9.2h-4.5v-4h4.5V9.2z M138.5,13.2h4.5v34.5h-4.5V13.2z M80.9,9.2h-7.6v-4h7.6V9.2z M175.9,23.8
		c-1.4-2.5-3.1-4.4-5.1-5.6c-2-1.2-4.4-1.8-7.1-1.8c-3.6,0-6.7,1.4-9.2,4c-2.5,2.7-3.8,6-3.8,10c0,3.9,1.3,7.3,3.8,9.9
		c2.5,2.7,5.7,4,9.4,4c2.8,0,5.1-0.7,7.2-2c2.1-1.3,3.7-3.2,4.7-5.6h5c-1.4,3.8-3.5,6.6-6.4,8.6c-2.9,2.1-6.4,3.1-10.4,3.1
		c-5.1,0-9.4-1.8-12.9-5.3c-3.5-3.5-5.3-7.8-5.3-12.7s1.8-9.4,5.4-12.9s7.9-5.3,12.9-5.3c3.8,0,7.2,1,10.1,3
		c2.9,2.1,5.1,4.9,6.6,8.5H175.9L175.9,23.8z M183.8,30.6c0-5,1.7-9.4,5.3-12.9c3.5-3.6,7.7-5.4,12.5-5.4c5.1,0,9.4,1.8,13,5.3
		s5.4,7.7,5.4,12.6c0,5.1-1.7,9.5-5.3,13.2s-7.8,5.5-12.8,5.5c-5,0-9.4-1.8-12.9-5.3C185.5,39.9,183.8,35.7,183.8,30.6 M188.5,30.6
		c0,3.9,1.3,7.3,3.9,10c2.6,2.7,5.8,4,9.6,4c3.8,0,6.9-1.4,9.5-4c2.6-2.7,3.8-6,3.8-10s-1.3-7.5-3.9-10.1c-2.6-2.7-5.9-3.9-9.8-3.9
		c-3.5,0-6.6,1.4-9.2,4C189.8,23.3,188.5,26.6,188.5,30.6 M95.3,31.8H63.6c0.3,3.8,1.6,6.8,4.1,9.1s5.6,3.5,9.3,3.5
		c2.7,0,5-0.7,7.2-2.1c2.1-1.4,3.7-3.2,4.9-5.6h5.1c-1.6,3.8-3.9,6.8-6.8,8.8s-6.3,3.1-10.2,3.1c-5.1,0-9.4-1.8-12.9-5.4
		c-3.5-3.6-5.3-7.9-5.3-12.8s1.7-9.6,5.2-13c3.5-3.4,7.9-5.1,13.3-5.1s9.6,1.8,12.9,5.3c3.4,3.6,5,8.2,5,13.9L95.3,31.8L95.3,31.8z
		 M90.4,28c-0.9-3.8-2.4-6.7-4.7-8.6s-5.3-2.9-8.9-2.9c-3.4,0-6.3,1-8.6,3.2c-2.3,2.1-3.8,4.9-4.3,8.5L90.4,28L90.4,28z M130.1,18.6
		V5.1h4.6v42.4h-4.6v-5.2c-1.6,1.9-3.5,3.4-5.9,4.4c-2.3,1.1-4.8,1.6-7.4,1.6c-5.1,0-9.3-1.8-12.8-5.2c-3.5-3.5-5.2-7.8-5.2-12.9
		s1.7-9.3,5.2-12.7c3.5-3.4,7.7-5.2,12.9-5.2c2.8,0,5.3,0.5,7.6,1.5C126.6,15.1,128.5,16.6,130.1,18.6z M130.2,30.7
		c0-3.9-1.3-7.3-4-10c-2.7-2.7-5.8-4.2-9.3-4.2s-6.9,1.3-9.5,3.9c-2.7,2.7-4,5.9-4,9.7c0,4,1.3,7.4,4,10.2c2.7,2.7,5.9,4.1,9.7,4.1
		c3.5,0,6.6-1.4,9.2-4.1C128.9,37.5,130.2,34.4,130.2,30.7" />
		<path class="st1" d="M54.8,47.4V18.9c0-5.7-1.6-10.3-4.8-13.8C46.7,1.7,42.5,0,37.1,0c-3.5,0-6.5,0.7-8.9,2
		c-2.4,1.4-4.4,3.3-5.9,6.1c-1.5-2.7-3.4-4.8-5.6-6.1c-2.3-1.3-5.2-2-8.6-2C5.5,0,3.2,0.5,1.2,1.5C0.7,1.8,0.4,2.1-0.1,2.3v8
		c1.7-1.8,4.1-2.7,7.2-2.7c3.5,0,6.1,1.3,7.8,3.8s2.4,6.7,2.4,12.4v23.5h8.3V23c0-5.6,0.8-9.5,2.4-11.9c1.6-2.3,4.3-3.5,8-3.5
		c3.2,0,5.7,1.1,7.4,3.3c1.8,2.2,2.7,5.3,2.7,9.3v27.2L54.8,47.4L54.8,47.4z" />
		<g>
			<path class="st2"
				d="M4.6,56.8v5.4c0,1.9-0.8,2.8-2.4,2.8s-2.2-1-2.2-2.8v-5.4c0-1.8,0.9-2.7,2.3-2.7C3.9,54.1,4.6,55.1,4.6,56.8z
			 M1.2,56.8v5.6c0,1.2,0.4,1.7,1.1,1.7c0.8,0,1.1-0.4,1.1-1.7v-5.5c0-1.1-0.4-1.7-1.2-1.7C1.5,55.1,1.2,55.6,1.2,56.8z" />
			<path class="st2" d="M9.8,62.7c0,1.2-0.1,2.3-1.7,2.3c-0.3,0-0.5,0-0.7-0.1v-1c0.1,0,0.3,0,0.5,0c0.6,0,0.8-0.2,0.8-1.1v-8.6h1.1
			V62.7z" />
			<path class="st2" d="M15.8,56.8v5.4c0,1.9-0.8,2.8-2.4,2.8s-2.2-1-2.2-2.8v-5.4c0-1.8,0.9-2.7,2.3-2.7
			C15.1,54.1,15.8,55.1,15.8,56.8z M12.3,56.8v5.6c0,1.2,0.4,1.7,1.1,1.7c0.8,0,1.1-0.4,1.1-1.7v-5.5c0-1.1-0.4-1.7-1.2-1.7
			C12.7,55.1,12.3,55.6,12.3,56.8z" />
			<path class="st2" d="M18.3,59.9v5h-1.1V54.1h1.9c1.6,0,2.4,0.7,2.4,2.5v0.5c0,1.5-0.5,2.1-1.1,2.2c0.7,0.3,1,0.8,1,2.2
			c0,0.9,0,2.7,0.1,3.3h-1.1c-0.2-0.7-0.1-2.5-0.1-3.3c0-1.4-0.2-1.8-1.3-1.8C19,59.9,18.3,59.9,18.3,59.9z M18.3,58.9H19
			c1,0,1.3-0.6,1.3-1.7v-0.5c0-0.9-0.3-1.5-1.4-1.5h-0.7L18.3,58.9L18.3,58.9z" />
			<path class="st2" d="M22.8,64.8V54.1h1.4c0.6,2,2.1,7.6,2.2,8.5l0,0c-0.1-1.5-0.1-2.9-0.1-4.7v-3.8h1.1v10.7h-1.3
			c-0.6-2-2.2-7.9-2.3-8.7l0,0c0.1,1.3,0.1,3,0.1,5v3.8L22.8,64.8L22.8,64.8z" />
			<path class="st2" d="M30.2,61.4l-0.5,3.4h-1.2l1.8-10.7h1.6l1.8,10.7h-1.2L32,61.4H30.2z M31.8,60.4c-0.3-2.3-0.6-4.2-0.8-5.2l0,0
			c0,0.9-0.4,3.3-0.7,5.2H31.8z" />
			<path class="st2" d="M34.6,54.1h1.1v9.7h2.7l-0.1,1h-3.7V54.1z" />
			<path class="st2" d="M41.4,54.1h2c2.3,0,2.6,1.5,2.6,3.2v4.2c0,1.6-0.3,3.3-2.7,3.3h-1.9V54.1z M42.6,63.9h0.7
			c1.3,0,1.6-0.8,1.6-2.1v-4.6c0-1.2-0.3-2-1.6-2h-0.7V63.9z" />
			<path class="st2" d="M51,59.7h-2.4v4.1h2.8l-0.2,1h-3.7V54.1h3.7v1h-2.6v3.4H51V59.7z" />
			<path class="st2" d="M55.3,55.2h-1.7v-1h4.7v1h-1.7v9.7h-1.1L55.3,55.2L55.3,55.2z" />
			<path class="st2" d="M63.3,56.8v5.4c0,1.9-0.8,2.8-2.4,2.8s-2.2-1-2.2-2.8v-5.4c0-1.8,0.9-2.7,2.3-2.7
			C62.6,54.1,63.3,55.1,63.3,56.8z M59.8,56.8v5.6c0,1.2,0.4,1.7,1.1,1.7c0.8,0,1.1-0.4,1.1-1.7v-5.5c0-1.1-0.4-1.7-1.2-1.7
			C60.2,55.1,59.8,55.6,59.8,56.8z" />
			<path class="st2" d="M64.8,54.1h2c2.3,0,2.6,1.5,2.6,3.2v4.2c0,1.6-0.3,3.3-2.7,3.3h-1.9C64.8,64.8,64.8,54.1,64.8,54.1z
			 M65.9,63.9h0.7c1.3,0,1.6-0.8,1.6-2.1v-4.6c0-1.2-0.3-2-1.6-2h-0.7V63.9z" />
			<path class="st2" d="M75.1,56.8v5.4c0,1.9-0.8,2.8-2.4,2.8s-2.2-1-2.2-2.8v-5.4c0-1.8,0.9-2.7,2.3-2.7
			C74.4,54.1,75.1,55.1,75.1,56.8z M71.6,56.8v5.6c0,1.2,0.4,1.7,1.1,1.7c0.8,0,1.1-0.4,1.1-1.7v-5.5c0-1.1-0.4-1.7-1.2-1.7
			C72,55.1,71.6,55.6,71.6,56.8z" />
			<path class="st2" d="M77.2,61.8v0.6c0,1,0.3,1.5,1.1,1.5s1-0.5,1-1.7c0-1.3-0.3-1.7-1.4-2.7c-1.1-0.9-1.7-1.5-1.7-3
			c0-1.4,0.4-2.7,2.1-2.7s2.1,1,2.1,2.4v0.5h-1.1v-0.4c0-0.9-0.2-1.5-0.9-1.5s-0.9,0.7-0.9,1.5c0,1,0.2,1.4,1.2,2.1
			c1.5,1.1,2,1.7,2,3.5c0,1.5-0.4,2.9-2.2,2.9c-1.7,0-2.2-1.1-2.2-2.6v-0.6H77.2z" />
			<path class="st2" d="M88.2,56.8v5.4c0,1.9-0.8,2.8-2.4,2.8s-2.2-1-2.2-2.8v-5.4c0-1.8,0.9-2.7,2.3-2.7
			C87.6,54.1,88.2,55.1,88.2,56.8z M84.8,56.8v5.6c0,1.2,0.4,1.7,1.1,1.7c0.8,0,1.1-0.4,1.1-1.7v-5.5c0-1.1-0.4-1.7-1.2-1.7
			C85.1,55.1,84.8,55.6,84.8,56.8z" />
			<path class="st2" d="M90.3,61.8v0.6c0,1,0.3,1.5,1.1,1.5c0.8,0,1-0.5,1-1.7c0-1.3-0.3-1.7-1.4-2.7c-1.1-0.9-1.7-1.5-1.7-3
			c0-1.4,0.4-2.7,2.1-2.7s2.1,1,2.1,2.4v0.5h-1.1v-0.4c0-0.9-0.2-1.5-0.9-1.5c-0.8,0-0.9,0.7-0.9,1.5c0,1,0.2,1.4,1.2,2.1
			c1.5,1.1,2,1.7,2,3.5c0,1.5-0.4,2.9-2.2,2.9c-1.7,0-2.2-1.1-2.2-2.6v-0.6H90.3z" />
			<path class="st2" d="M102.3,60.4c0-2,0-4.1,0.1-5.2l0,0c-0.3,1.8-1.1,6.5-1.6,9.7h-1.1c-0.4-2.7-1.3-7.8-1.6-9.7l0,0
			c0,1.2,0.1,3.7,0.1,5.5v4.2h-1V54.1h1.7c0.6,3.2,1.3,7.1,1.5,8.5l0,0c0.2-1.4,1-5.5,1.6-8.5h1.6v10.7h-1.1L102.3,60.4L102.3,60.4z
			" />
			<path class="st2" d="M108.5,59.7h-2.4v4.1h2.8l-0.2,1H105V54.1h3.7v1h-2.6v3.4h2.4V59.7z M109.2,51.9l-1.9,1.6h-1.1l1.6-1.6H109.2
			z" />
			<path class="st2" d="M109.8,54.1h2c2.3,0,2.6,1.5,2.6,3.2v4.2c0,1.6-0.3,3.3-2.7,3.3h-1.9V54.1z M110.9,63.9h0.7
			c1.3,0,1.6-0.8,1.6-2.1v-4.6c0-1.2-0.3-2-1.6-2h-0.7V63.9z" />
			<path class="st2" d="M116.9,54.1v10.7h-1.1V54.1H116.9z" />
			<path class="st2"
				d="M122.6,61.8v0.3c0,1.4-0.3,2.8-2.2,2.8s-2.2-1.3-2.2-2.9v-5.5c0-1.7,0.8-2.7,2.2-2.7c1.8,0,2.2,1.3,2.2,2.7
			V57h-1.1v-0.5c0-0.9-0.2-1.5-0.9-1.5c-0.8,0-1,0.6-1,1.5v5.6c0,1.1,0.3,1.8,1,1.8c0.9,0,1-0.7,1-1.7v-0.4L122.6,61.8L122.6,61.8z" />
			<path class="st2" d="M128.3,56.8v5.4c0,1.9-0.8,2.8-2.4,2.8c-1.6,0-2.2-1-2.2-2.8v-5.4c0-1.8,0.9-2.7,2.3-2.7
			C127.6,54.1,128.3,55.1,128.3,56.8z M124.8,56.8v5.6c0,1.2,0.4,1.7,1.1,1.7c0.8,0,1.1-0.4,1.1-1.7v-5.5c0-1.1-0.4-1.7-1.2-1.7
			C125.2,55.1,124.8,55.6,124.8,56.8z" />
			<path class="st2" d="M130.4,61.8v0.6c0,1,0.3,1.5,1.1,1.5c0.8,0,1-0.5,1-1.7c0-1.3-0.3-1.7-1.4-2.7c-1.1-0.9-1.7-1.5-1.7-3
			c0-1.4,0.4-2.7,2.1-2.7c1.6,0,2,1,2,2.4v0.5h-1.1v-0.4c0-0.9-0.2-1.5-0.9-1.5c-0.8,0-0.9,0.7-0.9,1.5c0,1,0.2,1.4,1.2,2.1
			c1.5,1.1,2,1.7,2,3.5c0,1.5-0.4,2.9-2.2,2.9c-1.7,0-2.2-1.1-2.2-2.6v-0.6H130.4z" />
		</g>
	</g>
</svg>