<svg width="102" height="48" viewBox="0 0 102 48" fill="none" xmlns="http://www.w3.org/2000/svg">
<g clip-path="url(#clip0_10_581)">
<path d="M38.8152 12.8562H41.293V6.1881H56.0693L58.6638 12.8822H66.2011L60.3763 1.20648H37.6217C23.5071 1.20648 17.5655 10.8584 15.2822 16.5535C21.3147 13.9459 29.3709 12.6486 38.8152 12.8562Z" fill="#4D503A"/>
<path d="M79.7969 18.5254C84.8693 18.5254 88.8779 19.4206 91.8877 21.12V19.7838C91.8877 18.6415 91.4339 17.546 90.6262 16.7383C89.8184 15.9305 88.7229 15.4768 87.5806 15.4768H38.7633C25.3363 15.1784 14.932 17.9676 9.47036 23.2606C6.72172 25.9574 5.08323 29.5861 4.87793 33.4314L10.8455 33.133C11.5597 30.5457 13.0728 28.2501 15.1689 26.5736C17.2651 24.8972 19.8371 23.9257 22.5181 23.7977C25.1991 23.6697 27.8521 24.3917 30.0984 25.8608C32.3447 27.3299 34.0697 29.4709 35.0271 31.9784L60.5579 30.6811C62.1277 28.1124 68.7569 18.5254 79.7969 18.5254Z" fill="#D3633D"/>
<path d="M98.4647 30.9405H95.9999C95.8251 30.9399 95.6523 30.9039 95.4918 30.8348C95.3313 30.7657 95.1864 30.6649 95.0658 30.5384C94.9463 30.4146 94.8527 30.2682 94.7903 30.1078C94.728 29.9475 94.6981 29.7763 94.7026 29.6043C94.5911 27.8349 93.8176 26.1722 92.5361 24.947C90.0582 22.4432 85.6604 21.12 79.7836 21.12C68.8215 21.12 62.4647 32.5103 62.3999 32.627C62.2933 32.8224 62.1383 32.987 61.9497 33.1052C61.7612 33.2233 61.5454 33.291 61.3231 33.3016L35.6626 34.5989C35.7757 35.2808 35.8364 35.9704 35.8442 36.6616C35.8435 37.9097 35.6599 39.151 35.2993 40.3459H68.4712C67.8918 38.4401 67.767 36.425 68.1066 34.4623C68.4463 32.4995 69.241 30.6435 70.4272 29.0432C71.6133 27.4429 73.1578 26.1427 74.9369 25.2468C76.7161 24.3509 78.6803 23.8843 80.6723 23.8843C82.6642 23.8843 84.6285 24.3509 86.4076 25.2468C88.1868 26.1427 89.7313 27.4429 90.9174 29.0432C92.1036 30.6435 92.8983 32.4995 93.238 34.4623C93.5776 36.425 93.4528 38.4401 92.8734 40.3459H98.4647C99.1873 40.3459 99.8802 40.0589 100.391 39.548C100.902 39.0371 101.189 38.3442 101.189 37.6216V32.6659C101.189 32.1989 101.189 30.9405 98.4647 30.9405Z" fill="#4D503A"/>
<path d="M10.3784 35.7795L1.63459 36.2076C1.18838 36.2495 0.773761 36.4561 0.471567 36.7871C0.169373 37.118 0.00126007 37.5497 0 37.9979V38.4908C0 38.9691 0.189984 39.4277 0.528158 39.7659C0.866332 40.1041 1.32499 40.2941 1.80324 40.2941H10.8843C10.5369 39.0972 10.3665 37.856 10.3784 36.6097C10.3784 36.3243 10.3784 36.0519 10.3784 35.7795Z" fill="#4D503A"/>
<path d="M80.6659 26.4649C78.6558 26.4623 76.6901 27.0562 75.0177 28.1713C73.3452 29.2865 72.0413 30.8728 71.2708 32.7295C70.5004 34.5861 70.2981 36.6296 70.6897 38.6012C71.0812 40.5728 72.0489 42.384 73.4703 43.8054C74.8917 45.2267 76.7028 46.1944 78.6744 46.586C80.6461 46.9775 82.6896 46.7752 84.5462 46.0048C86.4028 45.2344 87.9891 43.9304 89.1043 42.258C90.2195 40.5856 90.8134 38.6199 90.8108 36.6097C90.8074 33.9202 89.7374 31.3418 87.8356 29.44C85.9338 27.5382 83.3555 26.4683 80.6659 26.4649ZM80.6659 42.3438C79.5318 42.3438 78.4232 42.0075 77.4803 41.3774C76.5373 40.7473 75.8023 39.8518 75.3684 38.804C74.9344 37.7563 74.8208 36.6034 75.0421 35.4911C75.2633 34.3788 75.8094 33.357 76.6113 32.5551C77.4133 31.7532 78.435 31.2071 79.5473 30.9858C80.6596 30.7646 81.8125 30.8781 82.8603 31.3121C83.908 31.7461 84.8036 32.4811 85.4336 33.424C86.0637 34.367 86.4 35.4756 86.4 36.6097C86.4 38.1305 85.7959 39.589 84.7205 40.6643C83.6452 41.7396 82.1867 42.3438 80.6659 42.3438Z" fill="#D3633D"/>
<path d="M23.1051 26.4648C21.0955 26.4648 19.1311 27.0609 17.4604 28.1777C15.7896 29.2944 14.4877 30.8816 13.7192 32.7384C12.9508 34.5953 12.7504 36.6384 13.1434 38.6092C13.5364 40.5799 14.5051 42.3899 15.927 43.8099C17.3489 45.23 19.1601 46.1964 21.1314 46.5869C23.1026 46.9774 25.1455 46.7744 27.0013 46.0036C28.8572 45.2328 30.4427 43.9288 31.5573 42.2566C32.6719 40.5845 33.2655 38.6193 33.2629 36.6097C33.2595 33.9179 32.1878 31.3376 30.2832 29.4354C28.3786 27.5333 25.7969 26.4648 23.1051 26.4648ZM23.1051 42.3438C21.9705 42.3463 20.8606 42.0122 19.9159 41.3837C18.9712 40.7552 18.2343 39.8606 17.7983 38.813C17.3623 37.7655 17.2469 36.6122 17.4667 35.499C17.6865 34.3859 18.2315 33.3629 19.0329 32.5597C19.8344 31.7565 20.856 31.2091 21.9687 30.9868C23.0813 30.7645 24.2349 30.8773 25.2834 31.3109C26.332 31.7445 27.2283 32.4795 27.8589 33.4227C28.4896 34.3659 28.8262 35.4751 28.8262 36.6097C28.8279 37.3621 28.6812 38.1074 28.3944 38.8031C28.1077 39.4987 27.6865 40.1309 27.1551 40.6635C26.6237 41.1961 25.9924 41.6187 25.2975 41.907C24.6025 42.1954 23.8575 42.3438 23.1051 42.3438Z" fill="#D3633D"/>
</g>
<defs>
<clipPath id="clip0_10_581">
<rect width="101.189" height="48" fill="white"/>
</clipPath>
</defs>
</svg>
