<svg width="96" height="52" viewBox="0 0 96 52" fill="none" xmlns="http://www.w3.org/2000/svg">
<g clip-path="url(#clip0_10_666)">
<path d="M93.6 33.8L64.8 28.7001C62.9 22.9001 58.2 18.4 52.2 17L51.5 10.3H60.4C61.3 10.3 62.1 9.60005 62.1 8.60005C62.1 7.80005 61.5 7.10005 60.7 7.00005L51 5.30005L50.6 1.50005C50.5 0.80005 50 0.300049 49.3 0.300049H46.3C45.6 0.300049 45.1 0.80005 45 1.50005L44.6 5.30005L34.9 7.00005C34.1 7.10005 33.5 7.80005 33.5 8.60005C33.5 9.50005 34.2 10.3 35.2 10.3H44.1L43.4 17C37.5 18.5 32.7 23 30.8 28.7001L2.4 33.8C1.3 34 0.5 34.9001 0.5 36C0.5 37.2001 1.5 38.3 2.8 38.3H10.9C10.8 38.8 10.7 39.2001 10.7 39.7001C10.7 43.4001 13.7 46.4001 17.4 46.4001C21.1 46.4001 24.1 43.4001 24.1 39.7001C24.1 39.2001 24 38.7001 23.9 38.3H30.9C32.7 46 39.7 51.8001 48 51.8001C56.3 51.8001 63.3 46 65.2 38.3H72.2C72 38.7001 72 39.2001 72 39.7001C72 43.4001 75 46.4001 78.7 46.4001C82.4 46.4001 85.4 43.4001 85.4 39.7001C85.4 39.2001 85.3 38.7001 85.2 38.3H93.3C94.5 38.3 95.6 37.3 95.6 36C95.5 34.9001 94.7 34 93.6 33.8ZM55.3 31.6C55.2 31.6 51.9 32.6 48 32.6C44 32.6 40.8 31.7 40.7 31.6C39.3 31.2 38.5 29.7 38.9 28.3C39.3 26.9 40.8 26.1 42.2 26.5C42.2 26.5 44.8 27.3 48 27.3C51.2 27.3 53.8 26.5 53.8 26.5C55.2 26.1 56.7 26.9 57.1 28.3C57.5 29.7 56.7 31.2 55.3 31.6Z" fill="#4D503A"/>
<path d="M16.0002 24.4C16.3002 24.7 16.7002 24.7 16.9002 24.4L24.4002 16.9C26.5002 14.8 26.3002 11.1 23.6002 9.40001C21.7002 8.10001 19.1002 8.5 17.4002 10.1L16.4002 11.1L15.4002 10C13.3002 7.9 9.70022 8.1 7.90022 10.8C6.60022 12.7 7.00022 15.3 8.60022 17L16.0002 24.4Z" fill="#D3633D"/>
<path d="M79.0002 24.4C79.3002 24.7 79.7002 24.7 79.9002 24.4L87.4002 16.9C89.5002 14.8 89.3002 11.1 86.6002 9.40001C84.7002 8.10001 82.1002 8.5 80.4002 10.1L79.4002 11.1L78.4002 10C76.3002 7.9 72.7002 8.1 70.9002 10.8C69.6002 12.7 70.0002 15.3 71.6002 17L79.0002 24.4Z" fill="#D3633D"/>
</g>
<defs>
<clipPath id="clip0_10_666">
<rect width="96" height="52" fill="white"/>
</clipPath>
</defs>
</svg>
