<svg width="32" height="42" viewBox="0 0 32 42" fill="none" xmlns="http://www.w3.org/2000/svg">
<path fill-rule="evenodd" clip-rule="evenodd" d="M10.8159 23.2465L12.5874 23.2805C13.9224 23.2805 14.9792 23.5216 15.758 24.0037C16.5738 24.4857 17.1856 25.079 17.5936 25.7836C18.0385 26.4882 18.5021 27.4523 18.9841 28.676L21.0422 34.0159C21.7097 35.7217 22.3216 37.0566 22.8778 38.0208C23.434 38.9478 24.1015 39.6895 24.8802 40.2457C25.696 40.7649 26.7344 41.0244 27.9952 41.0244C28.9222 41.0244 29.8122 40.7278 30.6651 40.1345C31.5551 39.5041 32 38.6141 32 37.4645C32 36.9083 31.8517 36.315 31.5551 35.6846C31.1842 36.0925 30.7022 36.2964 30.1088 36.2964C29.5897 36.2594 29.0891 35.9812 28.607 35.4621C28.162 34.9059 27.6985 34.0159 27.2164 32.7922L24.7134 26.9517C24.0088 25.5796 23.2486 24.4857 22.4328 23.6699C21.617 22.817 20.5601 22.2237 19.2623 21.89C21.9693 21.1854 24.1015 19.9061 25.659 18.0519C27.2164 16.1978 27.9952 13.9173 27.9952 11.2102C27.9952 7.57617 26.6602 4.96187 23.9903 3.36733C21.3574 1.7357 17.3525 0.919891 11.9756 0.919891C11.5794 0.919891 11.1929 0.924125 10.8159 0.932592V3.26795C11.2519 3.26003 11.7868 3.25608 12.4206 3.25608C18.3167 3.25608 21.2647 6.0558 21.2647 11.6552C21.2647 14.3622 20.5045 16.5686 18.9841 18.2744C17.5008 19.9802 15.4613 20.8702 12.8656 20.9444C12.055 20.9444 11.3718 20.9388 10.8159 20.9277V23.2465Z" fill="#4D503A"/>
<path d="M4.44988 41.0801C3.41158 41.0801 2.55868 40.802 1.8912 40.2457C1.2608 39.6524 0.945599 38.8551 0.945599 37.8539L0.889976 8.98532C0.889976 6.16706 0.593317 3.96066 0 2.36612C0.370823 2.03238 0.852893 1.73572 1.44621 1.47614C2.07661 1.17949 2.78118 1.03116 3.5599 1.03116C4.59821 1.03116 5.4511 1.32782 6.11859 1.92113C6.78607 2.47737 7.11981 3.2561 7.11981 4.25732V33.0703C7.11981 35.9627 7.41647 38.1691 8.00978 39.6895C6.97148 40.6166 5.78485 41.0801 4.44988 41.0801Z" fill="#D3633D"/>
</svg>
