<svg width="284" height="245" viewBox="0 0 284 245" fill="none" xmlns="http://www.w3.org/2000/svg">
<path fill-rule="evenodd" clip-rule="evenodd" d="M127.702 142.377L132.731 142.474C136.52 142.474 139.52 143.158 141.731 144.526C144.047 145.895 145.784 147.579 146.942 149.579C148.205 151.579 149.52 154.316 150.889 157.789L156.731 172.947C158.626 177.789 160.363 181.579 161.942 184.316C163.52 186.947 165.415 189.053 167.626 190.632C169.942 192.105 172.889 192.842 176.468 192.842C179.099 192.842 181.626 192 184.047 190.316C186.573 188.526 187.836 186 187.836 182.737C187.836 181.158 187.415 179.474 186.573 177.684C185.52 178.842 184.152 179.421 182.468 179.421C180.994 179.316 179.573 178.526 178.205 177.053C176.942 175.474 175.626 172.947 174.257 169.474L167.152 152.895C165.152 149 162.994 145.895 160.678 143.579C158.363 141.158 155.363 139.474 151.678 138.526C159.363 136.526 165.415 132.895 169.836 127.632C174.257 122.368 176.468 115.895 176.468 108.211C176.468 97.8947 172.678 90.4737 165.099 85.9474C157.626 81.3158 146.257 79 130.994 79C129.869 79 128.772 79.012 127.702 79.0361V85.6653C128.939 85.6428 130.458 85.6316 132.257 85.6316C148.994 85.6316 157.363 93.5789 157.363 109.474C157.363 117.158 155.205 123.421 150.889 128.263C146.678 133.105 140.889 135.632 133.52 135.842C131.219 135.842 129.28 135.826 127.702 135.795V142.377Z" fill="#4D503A"/>
<path d="M109.632 193C106.684 193 104.263 192.211 102.368 190.632C100.579 188.947 99.6842 186.684 99.6842 183.842L99.5263 101.895C99.5263 93.8949 98.6842 87.6317 97 83.1054C98.0526 82.158 99.4211 81.3159 101.105 80.5791C102.895 79.737 104.895 79.3159 107.105 79.3159C110.053 79.3159 112.474 80.158 114.368 81.8422C116.263 83.4212 117.211 85.6317 117.211 88.4738V170.263C117.211 178.474 118.053 184.737 119.737 189.053C116.789 191.684 113.421 193 109.632 193Z" fill="#D3633D"/>
<path d="M39.1289 222.55C39.0846 222.246 39.1514 221.985 39.3291 221.768C39.4909 221.565 39.7241 221.441 40.0285 221.397C40.2712 221.38 40.4788 221.451 40.6516 221.612C40.8244 221.772 40.9424 221.967 41.0057 222.197C41.1511 223.156 41.4266 224.085 41.8321 224.983C42.2233 225.864 42.7755 226.702 43.4887 227.495C44.3588 228.463 45.3463 229.21 46.4512 229.737C47.5261 230.263 48.6669 230.542 49.8736 230.576C51.0644 230.624 52.253 230.431 53.4393 229.995C54.6113 229.544 55.7209 228.847 56.7679 227.906C57.8466 226.936 58.6733 225.877 59.2479 224.73C59.8066 223.596 60.1251 222.435 60.2034 221.245C60.2674 220.04 60.0952 218.876 59.6866 217.751C59.278 216.627 58.6459 215.588 57.7901 214.637C57.0911 213.859 56.324 213.229 55.4886 212.747C54.6389 212.249 53.7527 211.869 52.8299 211.609C52.5921 211.536 52.4106 211.398 52.2854 211.195C52.1301 210.99 52.0819 210.761 52.1407 210.507C52.1868 210.207 52.3344 209.989 52.5834 209.851C52.8023 209.711 53.0457 209.679 53.3137 209.754C53.9241 209.922 54.5828 210.176 55.2899 210.516C55.9969 210.855 56.6849 211.27 57.3538 211.758C58.0386 212.233 58.652 212.771 59.194 213.374C60.221 214.517 60.9775 215.773 61.4637 217.143C61.9498 218.513 62.1695 219.922 62.1228 221.37C62.0603 222.832 61.7052 224.256 61.0575 225.641C60.3956 227.011 59.4222 228.274 58.1372 229.429C56.8998 230.542 55.573 231.347 54.1567 231.846C52.7245 232.359 51.2854 232.577 49.8393 232.5C48.3932 232.424 46.9995 232.07 45.6584 231.44C44.3172 230.81 43.126 229.916 42.0847 228.757C41.2717 227.853 40.6141 226.867 40.112 225.798C39.6099 224.729 39.2821 223.646 39.1289 222.55Z" fill="#D3633D"/>
<path d="M28.5124 204.492L49.1941 201.981C49.4221 201.953 49.6189 201.978 49.7844 202.058C49.9498 202.137 50.0789 202.261 50.1715 202.429C50.3155 202.691 50.3582 202.923 50.2994 203.126C50.2219 203.339 50.0856 203.511 49.8903 203.643C49.8071 203.713 49.6899 203.766 49.5385 203.8L27.3553 206.371C27.0983 206.391 26.8964 206.356 26.7497 206.266C26.5739 206.168 26.4346 206.026 26.3317 205.839C26.2288 205.652 26.1974 205.462 26.2375 205.27C26.2486 205.069 26.3176 204.885 26.4447 204.717L40.4094 187.42C40.501 187.321 40.6028 187.241 40.7149 187.179C40.9765 187.035 41.2284 187.006 41.4705 187.092C41.6939 187.188 41.8674 187.348 41.9909 187.572C42.0938 187.759 42.1397 187.953 42.1286 188.154C42.0885 188.347 42.0049 188.527 41.8779 188.694L28.6781 205.058L28.5124 204.492ZM43.1691 203.18L41.1294 203.39L36.3445 194.7L37.8132 193.453L43.1691 203.18Z" fill="#D3633D"/>
<path d="M37.1408 172.835C37.6211 174.383 37.7749 175.806 37.6023 177.103C37.4296 178.4 36.9862 179.721 36.2719 181.067C36.2203 181.193 36.1452 181.316 36.0467 181.434C35.9421 181.532 35.808 181.605 35.6443 181.653C35.3988 181.726 35.1466 181.7 34.8875 181.577C34.6225 181.432 34.4536 181.238 34.381 180.992C34.3084 180.747 34.3441 180.491 34.4882 180.226C35.1115 179.174 35.4999 178.081 35.6535 176.945C35.801 175.789 35.7024 174.628 35.3575 173.462C35.0671 172.48 34.6565 171.656 34.1258 170.99C33.5891 170.303 32.9677 169.82 32.2618 169.539C31.5559 169.258 30.8245 169.23 30.0675 169.454C29.1265 169.732 28.4452 170.212 28.0237 170.892C27.5816 171.579 27.3006 172.397 27.1804 173.344C27.0398 174.298 26.9673 175.332 26.9629 176.445C26.9655 177.357 26.9253 178.236 26.8423 179.084C26.7388 179.938 26.5498 180.728 26.2752 181.454C25.9801 182.186 25.5434 182.816 24.9651 183.343C24.3869 183.87 23.617 184.276 22.6555 184.56C21.5712 184.881 20.525 184.879 19.5169 184.554C18.5087 184.229 17.6151 183.615 16.836 182.711C16.0304 181.792 15.4219 180.637 15.0105 179.246C14.6535 178.039 14.5162 176.823 14.5987 175.597C14.6751 174.351 15.0154 173.283 15.6196 172.392C15.8562 171.988 16.1074 171.747 16.3734 171.668C16.5779 171.608 16.8128 171.65 17.0778 171.794C17.3429 171.938 17.5118 172.133 17.5844 172.378C17.6449 172.583 17.6247 172.778 17.5238 172.963C17.1971 173.438 16.9487 173.99 16.7787 174.619C16.5882 175.253 16.4977 175.925 16.5072 176.634C16.5107 177.323 16.6152 178.015 16.821 178.711C17.1053 179.672 17.5159 180.496 18.0527 181.183C18.5629 181.855 19.1608 182.335 19.8462 182.621C20.5256 182.887 21.254 182.906 22.0314 182.676C22.8906 182.422 23.5238 181.967 23.9309 181.313C24.3381 180.659 24.6078 179.878 24.7401 178.971C24.8519 178.071 24.9281 177.125 24.9688 176.134C24.9541 175.182 24.9924 174.258 25.0838 173.364C25.1486 172.455 25.3256 171.624 25.6146 170.871C25.8976 170.097 26.3456 169.431 26.9588 168.872C27.5659 168.292 28.4115 167.841 29.4958 167.521C30.5391 167.212 31.5679 167.23 32.5821 167.575C33.5963 167.921 34.5032 168.542 35.3027 169.44C36.0962 170.318 36.7089 171.45 37.1408 172.835Z" fill="#D3633D"/>
<path d="M12.7861 151.324L32.622 157.694C32.8409 157.764 33.0089 157.869 33.126 158.011C33.2431 158.152 33.3085 158.318 33.3223 158.51C33.3437 158.808 33.2853 159.037 33.1471 159.196C32.9875 159.357 32.7915 159.457 32.559 159.495C32.4541 159.524 32.3257 159.523 32.1737 159.491L10.9491 152.547C10.7074 152.457 10.5386 152.341 10.4428 152.198C10.3242 152.036 10.2572 151.848 10.2419 151.635C10.2266 151.423 10.2774 151.237 10.3944 151.079C10.4885 150.901 10.6283 150.763 10.8137 150.664L30.7332 140.794C30.8578 140.742 30.984 140.712 31.1116 140.703C31.4095 140.681 31.6505 140.76 31.8345 140.939C31.9972 141.12 32.0877 141.338 32.1061 141.594C32.1214 141.806 32.082 142.002 31.9878 142.18C31.8708 142.338 31.7197 142.466 31.5343 142.565L12.6998 151.908L12.7861 151.324ZM26.648 156.263L24.7075 155.6L23.9961 145.706L25.8517 145.187L26.648 156.263Z" fill="#D3633D"/>
<path d="M10.4664 127.313C10.4937 127.166 10.5524 127.025 10.6426 126.89C10.7367 126.734 10.8669 126.617 11.0332 126.54L25.6712 120.275L25.482 121.119L14.1069 109.991C13.8351 109.702 13.7514 109.393 13.8556 109.065C13.9024 108.814 14.0357 108.621 14.2557 108.489C14.4585 108.331 14.6963 108.278 14.969 108.328L35.1046 112.068C35.3563 112.115 35.559 112.25 35.7127 112.474C35.8664 112.698 35.918 112.946 35.8673 113.219C35.8128 113.512 35.6736 113.736 35.4497 113.89C35.2259 114.043 34.9882 114.097 34.7365 114.05L16.52 110.667L16.6881 110.112L27.2596 120.31C27.3738 120.396 27.4611 120.51 27.5216 120.652C27.5612 120.789 27.5549 120.94 27.5028 121.104C27.4965 121.255 27.4482 121.397 27.358 121.533C27.2508 121.643 27.1264 121.728 26.985 121.789L13.3249 127.519L13.027 126.845L31.7154 130.316C31.9671 130.363 32.1698 130.498 32.3235 130.722C32.4811 130.925 32.5346 131.162 32.4839 131.435C32.4333 131.708 32.298 131.91 32.078 132.043C31.8581 132.176 31.6223 132.219 31.3706 132.172L11.235 128.432C10.9833 128.386 10.7786 128.261 10.621 128.058C10.4673 127.834 10.4158 127.586 10.4664 127.313Z" fill="#D3633D"/>
<path d="M19.7058 92.031L24.6042 81.3573C24.7109 81.1247 24.8916 80.9611 25.1462 80.8667C25.3814 80.7634 25.625 80.7696 25.8771 80.8852C26.1291 81.0009 26.2927 81.1816 26.3677 81.4273C26.4427 81.673 26.4269 81.9122 26.3201 82.1448L21.7287 92.1496L21.3678 91.6319L29.5403 95.3824L29.0154 95.5288L33.0195 86.8037C33.1262 86.571 33.3069 86.4075 33.5615 86.3131C33.8161 86.2186 34.0597 86.2248 34.2924 86.3316C34.5444 86.4473 34.708 86.6279 34.783 86.8736C34.858 87.1193 34.8422 87.3585 34.7354 87.5912L30.758 96.2581L30.5873 95.8629L38.9634 99.7068L38.7221 99.7721L43.2468 89.9128C43.3535 89.6801 43.5342 89.5166 43.7888 89.4222C44.0434 89.3277 44.287 89.3339 44.5197 89.4407C44.7717 89.5564 44.9353 89.737 45.0103 89.9827C45.0853 90.2284 45.0695 90.4676 44.9627 90.7003L40.0643 101.374C39.9576 101.607 39.7769 101.77 39.5223 101.865C39.2677 101.959 39.0241 101.953 38.7914 101.846L20.1779 93.304C19.9452 93.1972 19.7817 93.0165 19.6873 92.7619C19.5928 92.5073 19.599 92.2637 19.7058 92.031Z" fill="#D3633D"/>
<path d="M42.5458 54.9376C42.7166 54.7192 42.9153 54.6037 43.1417 54.5912C43.3813 54.5619 43.6019 54.626 43.8035 54.7837L59.9368 67.3992C60.1888 67.5963 60.3248 67.838 60.3446 68.1243C60.3608 68.3807 60.2901 68.6097 60.1324 68.8114C60.0535 68.9122 59.9513 69.0083 59.8257 69.0997C59.6833 69.1779 59.5438 69.2178 59.4072 69.2193L35.4657 68.6154L35.5739 68.0095L50.5224 79.6985C50.7072 79.843 50.8143 80.0351 50.8436 80.2747C50.873 80.5143 50.8088 80.7349 50.6511 80.9365C50.4802 81.155 50.275 81.2789 50.0355 81.3082C49.809 81.3207 49.6034 81.2547 49.4185 81.1101L33.2097 68.4356C32.9576 68.2384 32.8319 68.0183 32.8325 67.775C32.8163 67.5187 32.8805 67.298 33.0251 67.1132C33.1039 67.0123 33.2145 66.9228 33.3569 66.8446C33.4825 66.7533 33.622 66.7134 33.7754 66.725L57.4419 67.3169L57.6985 67.9238L42.6997 56.1954C42.498 56.0377 42.3825 55.8391 42.3532 55.5995C42.337 55.3431 42.4012 55.1225 42.5458 54.9376Z" fill="#D3633D"/>
<path d="M73.6978 56.3389C73.4636 56.5243 73.2116 56.6012 72.9419 56.5698C72.689 56.5251 72.4831 56.4024 72.3242 56.2016L59.6763 40.2161L61.2322 38.985L73.8801 54.9706C74.0389 55.1713 74.1026 55.4066 74.0712 55.6763C74.0398 55.946 73.9153 56.1669 73.6978 56.3389ZM54.9581 44.9284C54.7574 45.0873 54.5288 45.1593 54.2723 45.1446C54.0158 45.1299 53.8016 45.0138 53.6295 44.7963C53.4706 44.5956 53.4136 44.3687 53.4582 44.1157C53.5029 43.8628 53.6256 43.6568 53.8264 43.498L65.7716 34.0468C65.9724 33.888 66.201 33.8159 66.4575 33.8306C66.7139 33.8453 66.9282 33.9614 67.1003 34.1789C67.2724 34.3964 67.3361 34.6316 67.2914 34.8846C67.2335 35.1208 67.1042 35.3184 66.9034 35.4772L54.9581 44.9284Z" fill="#D3633D"/>
<path d="M101.444 27.8026C102.142 29.3365 102.54 30.8547 102.638 32.3571C102.746 33.8313 102.58 35.243 102.14 36.5921C101.69 37.9218 100.983 39.1227 100.017 40.195C99.0629 41.2389 97.8769 42.0835 96.4595 42.7286C95.0421 43.3738 93.6166 43.718 92.1829 43.7611C90.7599 43.776 89.3994 43.5163 88.1014 42.982C86.7946 42.4283 85.6113 41.6309 84.5514 40.5898C83.5021 39.5204 82.6283 38.2188 81.9301 36.6849C81.2319 35.151 80.8286 33.6469 80.7201 32.1727C80.6222 30.6703 80.798 29.2542 81.2475 27.9245C81.6882 26.5754 82.3859 25.3789 83.3405 24.3349C84.3057 23.2627 85.497 22.404 86.9144 21.7588C88.3318 21.1137 89.752 20.7836 91.175 20.7688C92.6086 20.7256 93.9788 20.9809 95.2856 21.5346C96.5836 22.0689 97.7573 22.8707 98.8066 23.9401C99.8664 24.9812 100.745 26.2687 101.444 27.8026ZM99.5797 28.6511C98.7931 26.923 97.764 25.5632 96.4922 24.5716C95.2311 23.5518 93.8404 22.9425 92.3201 22.7438C90.7999 22.5451 89.2631 22.7993 87.7098 23.5063C86.1759 24.2045 84.9749 25.1965 84.107 26.4823C83.2584 27.7593 82.7948 29.2126 82.7163 30.8422C82.6482 32.4436 83.0075 34.1083 83.7941 35.8364C84.5807 37.5645 85.6046 38.9384 86.8657 39.9583C88.1374 40.9498 89.5334 41.545 91.0537 41.7437C92.5934 41.9335 94.1301 41.6794 95.664 40.9812C97.2174 40.2741 98.4183 39.2821 99.2669 38.0052C100.115 36.7282 100.574 35.2891 100.642 33.6877C100.72 32.058 100.366 30.3791 99.5797 28.6511Z" fill="#D3633D"/>
<path d="M130.319 32.1084C130.33 32.3864 130.24 32.6329 130.05 32.8481C129.881 33.0607 129.67 33.1817 129.415 33.2109C129.119 33.2451 128.864 33.1777 128.651 33.0089C128.46 32.8377 128.348 32.6143 128.316 32.3388L125.984 12.0564C125.952 11.7809 126.021 11.5368 126.19 11.3241C126.359 11.1115 126.591 10.9881 126.888 10.9539C127.142 10.9247 127.376 10.9945 127.589 11.1633C127.822 11.3297 127.955 11.5506 127.987 11.8261L130.319 32.1084Z" fill="#D3633D"/>
<path d="M158.592 10.9414C158.869 10.9609 159.076 11.061 159.213 11.2418C159.371 11.4241 159.441 11.6429 159.423 11.8982L157.981 32.3274C157.959 32.6466 157.834 32.8945 157.608 33.071C157.404 33.2277 157.175 33.2971 156.92 33.279C156.792 33.27 156.655 33.239 156.509 33.1859C156.365 33.1116 156.254 33.0182 156.176 32.9058L143.293 12.7167L143.856 12.4678L142.52 31.3967C142.504 31.6308 142.405 31.8269 142.222 31.9851C142.04 32.1434 141.821 32.2135 141.566 32.1954C141.289 32.1759 141.072 32.075 140.914 31.8928C140.777 31.712 140.716 31.5046 140.733 31.2705L142.181 10.7456C142.204 10.4264 142.316 10.199 142.518 10.0636C142.722 9.90686 142.941 9.83675 143.175 9.85328C143.302 9.86229 143.438 9.90397 143.583 9.97832C143.729 10.0314 143.84 10.1248 143.916 10.2585L156.655 30.2128L156.295 30.7648L157.636 11.7721C157.654 11.5167 157.754 11.3099 157.936 11.1517C158.139 10.995 158.358 10.9249 158.592 10.9414Z" fill="#D3633D"/>
<path d="M176.128 14.4827L187.334 17.9965C187.579 18.0731 187.764 18.2317 187.889 18.4724C188.021 18.6927 188.046 18.9351 187.963 19.1998C187.88 19.4644 187.721 19.6494 187.487 19.7548C187.253 19.8602 187.014 19.8746 186.769 19.798L176.266 16.5044L176.734 16.0811L174.043 24.6612L173.832 24.1589L182.992 27.0312C183.236 27.1078 183.421 27.2664 183.547 27.5071C183.673 27.7477 183.698 27.9902 183.621 28.2345C183.538 28.4991 183.379 28.6841 183.145 28.7895C182.911 28.8949 182.672 28.9093 182.427 28.8327L173.328 25.9796L173.699 25.7604L170.941 34.5542L170.846 34.3231L181.197 37.5689C181.441 37.6455 181.626 37.8041 181.752 38.0447C181.878 38.2854 181.903 38.5278 181.826 38.7721C181.743 39.0367 181.584 39.2218 181.35 39.3272C181.116 39.4326 180.877 39.447 180.632 39.3704L169.426 35.8566C169.182 35.78 168.997 35.6214 168.871 35.3807C168.745 35.1401 168.721 34.8976 168.797 34.6533L174.925 15.1115C175.002 14.8672 175.16 14.6822 175.401 14.5565C175.642 14.4307 175.884 14.4061 176.128 14.4827ZM183.665 12.0504L180.318 13.3147C180.123 13.3654 179.942 13.4091 179.773 13.4459C179.626 13.489 179.491 13.4914 179.369 13.4531C179.226 13.4084 179.12 13.3192 179.05 13.1855C178.98 13.0518 178.961 12.9341 178.993 12.8323C179.025 12.7305 179.071 12.6555 179.131 12.6072C179.197 12.5385 179.287 12.4661 179.4 12.3898L182.537 10.6233C182.73 10.5051 182.911 10.4276 183.079 10.3909C183.274 10.3402 183.483 10.3499 183.707 10.4201L184.043 10.5255C184.267 10.5957 184.434 10.704 184.545 10.8505C184.682 10.983 184.806 11.1562 184.918 11.3701L186.463 14.571C186.533 14.7047 186.566 14.8154 186.56 14.9032C186.576 14.9974 186.57 15.0852 186.545 15.1667C186.513 15.2684 186.43 15.3543 186.296 15.4241C186.183 15.5004 186.055 15.5162 185.913 15.4715C185.791 15.4332 185.668 15.3612 185.544 15.2554C185.448 15.1357 185.337 14.9892 185.213 14.816L183.087 11.9696L183.665 12.0504Z" fill="#D3633D"/>
<path d="M195.489 46.8467C194.064 46.0726 192.961 45.161 192.179 44.1116C191.398 43.0623 190.794 41.8065 190.366 40.344C190.315 40.2174 190.283 40.0775 190.271 39.9241C190.278 39.7811 190.323 39.6352 190.406 39.4863C190.532 39.263 190.73 39.1052 191.002 39.013C191.292 38.9312 191.549 38.9529 191.772 39.078C191.996 39.2032 192.148 39.411 192.23 39.7014C192.518 40.8898 193.003 41.9442 193.685 42.8647C194.386 43.7956 195.267 44.5583 196.328 45.1528C197.221 45.6534 198.09 45.9571 198.935 46.0639C199.799 46.181 200.582 46.0938 201.283 45.8022C201.985 45.5106 202.528 45.0205 202.914 44.3319C203.394 43.4759 203.547 42.6569 203.374 41.8751C203.211 41.0747 202.842 40.2931 202.267 39.5305C201.702 38.7493 201.033 37.9584 200.259 37.1578C199.621 36.5068 199.036 35.8488 198.504 35.1838C197.982 34.5001 197.566 33.8023 197.256 33.0905C196.956 32.36 196.829 31.6042 196.876 30.8232C196.922 30.0422 197.19 29.2144 197.681 28.3397C198.233 27.3534 198.984 26.6247 199.933 26.1538C200.881 25.6828 201.95 25.4992 203.139 25.6031C204.357 25.6988 205.599 26.1013 206.865 26.8105C207.963 27.4259 208.91 28.2013 209.706 29.1367C210.521 30.0825 211.023 31.0852 211.212 32.1448C211.324 32.599 211.312 32.947 211.177 33.189C211.072 33.3751 210.875 33.509 210.585 33.5908C210.294 33.6726 210.037 33.6509 209.814 33.5258C209.628 33.4215 209.506 33.2677 209.449 33.0644C209.352 32.4963 209.145 31.9278 208.828 31.3588C208.521 30.7713 208.117 30.2269 207.615 29.7257C207.132 29.2348 206.574 28.8121 205.942 28.4575C205.067 27.9673 204.198 27.6636 203.334 27.5464C202.5 27.4211 201.737 27.4949 201.046 27.7679C200.373 28.0514 199.839 28.5467 199.443 29.2538C199.005 30.0355 198.868 30.8027 199.033 31.5554C199.198 32.3082 199.55 33.0555 200.088 33.7972C200.636 34.5204 201.242 35.251 201.904 35.989C202.579 36.6608 203.196 37.349 203.755 38.0535C204.343 38.7499 204.796 39.4685 205.115 40.2094C205.452 40.9608 205.596 41.7508 205.547 42.5794C205.517 43.4185 205.226 44.3312 204.673 45.3175C204.141 46.2666 203.391 46.9715 202.424 47.432C201.457 47.8926 200.373 48.0802 199.174 47.9949C197.993 47.9201 196.765 47.5373 195.489 46.8467Z" fill="#D3633D"/>
<path d="M222.788 68.5738C221.794 67.4316 221.176 66.1868 220.937 64.8397C220.697 63.4925 220.778 62.2053 221.181 60.978C221.597 59.7668 222.272 58.7549 223.205 57.9423C223.913 57.3259 224.715 56.8672 225.613 56.5662C226.525 56.2814 227.483 56.1964 228.489 56.3111C229.524 56.4279 230.58 56.7956 231.656 57.4143L231.522 59.3556C230.14 58.353 228.87 57.9024 227.714 58.0041C226.558 58.1057 225.553 58.5278 224.701 59.2704C223.977 59.9009 223.432 60.6722 223.067 61.5845C222.717 62.4828 222.628 63.4519 222.798 64.4918C222.968 65.5318 223.481 66.5424 224.335 67.5238C225.246 68.5695 226.192 69.3153 227.175 69.7611C228.187 70.209 229.199 70.4452 230.21 70.4696C231.238 70.4801 232.239 70.3299 233.213 70.0191C234.203 69.6943 235.131 69.2821 235.997 68.7824C236.186 68.6745 236.363 68.6337 236.527 68.6602C236.722 68.6888 236.903 68.7996 237.071 68.9926C237.268 69.2178 237.341 69.4649 237.292 69.7337C237.244 70.0025 237.085 70.2259 236.815 70.4039C235.82 71.0156 234.737 71.4927 233.564 71.8352C232.391 72.1776 231.171 72.3202 229.905 72.2631C228.655 72.1919 227.423 71.8649 226.208 71.2821C224.993 70.6992 223.853 69.7965 222.788 68.5738ZM230.563 76.8674C230.493 76.7869 230.431 76.6995 230.377 76.6051C230.353 76.5127 230.329 76.4203 230.305 76.3279C230.223 74.6741 230.136 73.0804 230.045 71.5469C229.985 70.0156 229.98 68.4351 230.032 66.8057C230.098 65.1923 230.251 63.4186 230.49 61.4845C230.644 60.361 230.83 59.3078 231.049 58.325C231.284 57.3281 231.58 56.4337 231.937 55.6419C232.31 54.836 232.794 54.1738 233.39 53.6555C234.13 53.011 234.958 52.6146 235.876 52.4662C236.81 52.3038 237.739 52.4134 238.666 52.7948C239.608 53.1623 240.486 53.8126 241.298 54.7457C242.307 55.904 242.923 57.0504 243.147 58.1848C243.372 59.3192 243.319 60.2984 242.99 61.1225C242.988 61.1526 242.953 61.2257 242.884 61.342C242.832 61.4442 242.749 61.5444 242.637 61.6424C242.492 61.7685 242.299 61.8233 242.058 61.8066C241.831 61.8061 241.627 61.7013 241.445 61.4921C241.333 61.3634 241.259 61.2298 241.223 61.0912C241.201 60.9688 241.21 60.8484 241.248 60.7301C241.45 59.988 241.473 59.2184 241.317 58.4213C241.19 57.6263 240.741 56.7864 239.971 55.9015C239.116 54.9202 238.215 54.3892 237.268 54.3088C236.337 54.2143 235.486 54.5033 234.714 55.1758C234.215 55.6101 233.803 56.2092 233.478 56.973C233.169 57.7229 232.916 58.5521 232.717 59.4608C232.532 60.3855 232.377 61.3123 232.253 62.2412C232.089 63.5152 231.97 64.8073 231.894 66.1177C231.849 67.4301 231.83 68.6913 231.837 69.9015C231.859 71.1277 231.901 72.2647 231.965 73.3125C232.029 74.3602 232.086 75.2865 232.136 76.0914C232.154 76.2741 232.135 76.4316 232.081 76.5639C232.026 76.6962 231.934 76.8184 231.806 76.9305C231.677 77.0426 231.483 77.1124 231.224 77.1399C230.965 77.1674 230.745 77.0765 230.563 76.8674Z" fill="#D3633D"/>
<path d="M242.225 97.4476C242.113 97.1476 242.11 96.8642 242.216 96.5974C242.329 96.3506 242.506 96.1826 242.746 96.0935L261.946 88.9675C262.186 88.8785 262.43 88.8905 262.677 89.0037C262.923 89.1169 263.091 89.2935 263.18 89.5335L266.187 97.6336C266.61 98.7736 266.738 99.8864 266.572 100.972C266.426 102.05 266.016 102.999 265.342 103.818C264.675 104.657 263.801 105.277 262.721 105.678C261.841 106.005 260.972 106.145 260.113 106.1C259.254 106.055 258.457 105.838 257.722 105.451C257.007 105.057 256.395 104.544 255.888 103.913L255.828 102.741C256.043 103.503 256.059 104.282 255.877 105.078C255.714 105.867 255.344 106.584 254.765 107.232C254.213 107.892 253.441 108.417 252.448 108.808C251.596 109.147 250.941 109.436 250.483 109.674C250.033 109.932 249.713 110.176 249.525 110.405C249.337 110.634 249.214 110.885 249.156 111.157C249.11 111.401 248.988 111.594 248.79 111.736C248.6 111.897 248.383 111.955 248.138 111.91C247.948 111.889 247.784 111.814 247.645 111.683C247.533 111.566 247.447 111.427 247.388 111.267C247.328 111.107 247.309 110.932 247.329 110.742C247.385 110.403 247.528 110.02 247.757 109.594C247.993 109.188 248.404 108.762 248.989 108.317C249.583 107.892 250.469 107.461 251.649 107.023C252.429 106.733 253.021 106.366 253.424 105.92C253.835 105.494 254.097 105.033 254.208 104.537C254.347 104.053 254.378 103.552 254.299 103.035C254.249 102.531 254.145 102.069 253.989 101.649L251.395 94.6584L251.938 94.8325L243.447 97.9836C243.207 98.0727 242.968 98.0706 242.728 97.9774C242.489 97.8842 242.321 97.7076 242.225 97.4476ZM253.045 94.046L255.84 101.576C256.152 102.234 256.61 102.792 257.213 103.251C257.835 103.703 258.553 103.982 259.367 104.09C260.188 104.218 261.049 104.114 261.949 103.78C263.089 103.357 263.884 102.618 264.334 101.564C264.812 100.522 264.821 99.3806 264.361 98.1406L261.7 90.9705L262.198 91.0246L252.748 94.5319L253.045 94.046Z" fill="#D3633D"/>
<path d="M270.445 126.276L250.314 120.909C250.092 120.851 249.919 120.754 249.795 120.618C249.671 120.483 249.597 120.32 249.574 120.13C249.538 119.833 249.584 119.602 249.715 119.435C249.866 119.266 250.057 119.157 250.287 119.107C250.39 119.073 250.519 119.068 250.672 119.092L272.218 124.962C272.464 125.039 272.639 125.147 272.741 125.285C272.868 125.441 272.944 125.625 272.97 125.837C272.996 126.049 272.955 126.237 272.846 126.4C272.761 126.583 272.628 126.728 272.448 126.836L253.049 137.693C252.927 137.751 252.803 137.788 252.676 137.804C252.379 137.84 252.135 137.773 251.942 137.603C251.77 137.431 251.669 137.218 251.638 136.964C251.612 136.752 251.641 136.555 251.727 136.372C251.835 136.209 251.98 136.073 252.16 135.965L270.502 125.688L270.445 126.276ZM256.353 122.039L258.324 122.603L259.531 132.45L257.704 133.061L256.353 122.039Z" fill="#D3633D"/>
<path d="M251.483 147.301C251.512 147.004 251.632 146.769 251.842 146.597C252.05 146.446 252.281 146.383 252.536 146.408L272.917 148.416C273.172 148.441 273.385 148.558 273.558 148.768C273.73 148.978 273.804 149.21 273.778 149.465L272.636 161.057C272.609 161.333 272.492 161.546 272.284 161.697C272.095 161.872 271.863 161.945 271.587 161.918C271.332 161.893 271.119 161.776 270.946 161.566C270.793 161.379 270.73 161.148 270.758 160.872L271.815 150.14L271.993 150.286L263.522 149.451L263.825 149.32L262.905 158.651C262.878 158.927 262.761 159.141 262.553 159.292C262.364 159.466 262.143 159.541 261.888 159.516C261.612 159.489 261.398 159.371 261.247 159.163C261.094 158.977 261.031 158.745 261.058 158.469L261.984 149.075L262.217 149.323L252.344 148.35C252.09 148.325 251.876 148.208 251.704 147.998C251.53 147.809 251.456 147.577 251.483 147.301Z" fill="#D3633D"/>
<path d="M264.902 182.561L248.98 169.126C248.804 168.978 248.689 168.817 248.634 168.641C248.579 168.466 248.582 168.287 248.642 168.105C248.736 167.821 248.877 167.632 249.065 167.537C249.274 167.448 249.493 167.431 249.723 167.484C249.831 167.497 249.949 167.547 250.078 167.635L267.066 182.129C267.256 182.304 267.368 182.475 267.402 182.644C267.45 182.839 267.44 183.038 267.374 183.241C267.307 183.444 267.189 183.596 267.021 183.698C266.866 183.826 266.684 183.901 266.475 183.922L244.299 185.474C244.164 185.475 244.036 185.455 243.914 185.415C243.631 185.321 243.438 185.157 243.336 184.921C243.254 184.692 243.253 184.456 243.333 184.213C243.4 184.01 243.511 183.844 243.666 183.716C243.834 183.614 244.023 183.553 244.232 183.532L265.204 182.054L264.902 182.561ZM253.96 172.722L255.503 174.073L252.398 183.494L250.485 183.268L253.96 172.722Z" fill="#D3633D"/>
<path d="M258.032 204.96L252.009 215.041C251.877 215.261 251.68 215.404 251.417 215.47C251.172 215.548 250.93 215.515 250.692 215.373C250.454 215.231 250.311 215.033 250.263 214.781C250.215 214.529 250.257 214.293 250.388 214.073L256.034 204.623L256.337 205.177L248.618 200.565L249.155 200.476L244.232 208.717C244.1 208.937 243.903 209.08 243.64 209.146C243.376 209.212 243.135 209.18 242.915 209.049C242.677 208.906 242.534 208.709 242.486 208.457C242.438 208.204 242.48 207.968 242.611 207.749L247.502 199.562L247.629 199.974L239.717 195.247L239.964 195.208L234.4 204.52C234.269 204.74 234.072 204.883 233.808 204.95C233.545 205.016 233.304 204.984 233.084 204.852C232.846 204.71 232.703 204.513 232.655 204.26C232.607 204.008 232.648 203.772 232.78 203.552L238.803 193.471C238.934 193.251 239.132 193.108 239.395 193.041C239.658 192.975 239.9 193.007 240.12 193.139L257.701 203.643C257.92 203.774 258.063 203.972 258.13 204.235C258.196 204.498 258.164 204.74 258.032 204.96Z" fill="#D3633D"/>
<path d="M219.464 222.321C219.291 222.51 219.068 222.609 218.797 222.62C218.541 222.645 218.319 222.571 218.131 222.397C217.928 222.209 217.82 221.979 217.809 221.708C217.814 221.451 217.904 221.229 218.077 221.041L225.827 212.647C226.015 212.443 226.245 212.336 226.516 212.325C226.773 212.33 226.995 212.419 227.183 212.593L242.231 226.486C242.419 226.66 242.518 226.882 242.529 227.153C242.54 227.425 242.444 227.67 242.241 227.89C242.068 228.078 241.845 228.177 241.574 228.188C241.288 228.214 241.051 228.141 240.863 227.967L226.098 214.335L226.91 214.257L219.464 222.321Z" fill="#D3633D"/>
</svg>
