<svg width="80" height="76" viewBox="0 0 80 76" fill="none" xmlns="http://www.w3.org/2000/svg">
<g clip-path="url(#clip0_10_604)">
<path d="M71.7887 0.883079C6.32455 0.883079 6.9887 0.641569 6.30945 1.31327C5.40379 2.23402 6.05285 3.81138 7.34342 3.81138H70.4151C71.6906 3.81138 72.9132 4.35478 73.7736 5.29817C76.4679 8.26421 74.3019 12.9208 70.2642 12.9208C64.0679 12.9208 64.6642 12.8227 64.6491 13.1472C64.6113 14.068 64.483 15.4642 64.4302 15.8491H71.7812C74.7547 15.8491 77.4415 14.0755 78.6264 11.3359C80.7623 6.4227 77.1396 0.875531 71.7812 0.875531L71.7887 0.883079Z" fill="#4D503A"/>
<path d="M32.7168 42.6189C44.1809 42.2416 54.3847 35.5321 59.3508 25.2001C57.2904 24.9737 55.4791 24.151 54.0074 22.9284C52.8526 21.9699 54.3017 20.234 55.4564 21.185C56.7923 22.2944 58.43 22.9586 60.3168 22.9812C61.5545 19.8114 62.2489 16.5435 62.3847 13.034C62.3923 12.868 64.6564 12.9208 32.7168 12.9208V42.6114V42.6189ZM46.5734 15.8567C48.4074 15.8567 49.9017 17.351 49.9017 19.1925C49.9017 21.034 48.4074 22.5284 46.5734 22.5284C44.7394 22.5284 43.2451 21.034 43.2451 19.1925C43.2451 17.351 44.7394 15.8567 46.5734 15.8567Z" fill="#D3633D"/>
<path d="M7.05664 25.0566L25.8793 43.9396C27.2604 43.132 28.8529 42.6792 30.4529 42.6339V12.9434C20.8906 13.2603 12.4151 17.9471 7.05664 25.0566Z" fill="#4D503A"/>
<path d="M1.45673 49.4793H21.6077C22.0228 47.8944 22.868 46.468 24.0605 45.3208L5.74352 26.9359C5.74352 27.0793 -1.62252 37.1472 1.46428 49.4793H1.45673Z" fill="#D3633D"/>
<path d="M2.14355 51.7434C4.2945 57.7057 8.77752 62.3849 14.1209 64.9283L22.5813 56.4453C21.7436 55.034 21.3058 53.4038 21.3058 51.7434H2.14355Z" fill="#4D503A"/>
<path d="M16.3926 65.8641C16.3926 65.9622 20.0303 67.1547 24.0605 67.1547H30.453L30.4228 60.9283C27.9624 60.9283 25.6756 59.9698 23.9775 58.2566C23.9775 58.1811 23.8341 58.4 16.3926 65.8641Z" fill="#D3633D"/>
<path d="M41.4262 60.9283H32.7168V67.1548H41.4262V60.9283Z" fill="#4D503A"/>
<path d="M52.3999 60.9283H43.6904V67.1548H52.3999V60.9283Z" fill="#D3633D"/>
<path d="M62.4153 64.0378C62.4153 62.3246 61.0266 60.9283 59.3209 60.9283H54.6719V67.1548H59.3209C61.0266 67.1548 62.4153 65.7812 62.4153 64.0378Z" fill="#4D503A"/>
<path d="M58.4149 58.6642C60.1356 58.6642 61.5092 57.2604 61.5092 55.5472C61.5092 53.834 60.1356 52.4377 58.4149 52.4377C53.2224 52.4377 48.2489 54.7472 44.8828 58.6642H58.4149Z" fill="#4D503A"/>
<path d="M58.4152 75.6454C60.1359 75.6454 61.5095 74.2416 61.5095 72.5284C61.5095 70.8152 60.1208 69.4189 58.4152 69.4189H44.8906C48.2642 73.3435 53.2378 75.6454 58.4152 75.6454Z" fill="#4D503A"/>
</g>
<defs>
<clipPath id="clip0_10_604">
<rect width="80" height="75.4717" fill="white" transform="translate(0 0.52832)"/>
</clipPath>
</defs>
</svg>
