<svg width="70" height="100" viewBox="0 0 70 100" fill="none" xmlns="http://www.w3.org/2000/svg">
<path d="M16.7778 81.2961C15.8768 80.1901 14.2568 80.0251 13.1528 80.9211C12.0488 81.8191 11.8788 83.4441 12.7798 84.5461L23.8128 98.0991C24.3198 98.7231 25.0628 99.0461 25.8128 99.0461C26.3828 99.0461 26.9578 98.8581 27.4338 98.4721C28.5358 97.5721 28.7058 95.9491 27.8068 94.8471L16.7778 81.2961Z" fill="#4D503A"/>
<path d="M26.5478 81.2961C25.6468 80.1901 24.0248 80.0251 22.9228 80.9211C21.8168 81.8191 21.6508 83.4441 22.5488 84.5461L33.5798 98.0991C34.0858 98.7231 34.8328 99.0461 35.5798 99.0461C36.1568 99.0461 36.7278 98.8581 37.2068 98.4721C38.3028 97.5721 38.4768 95.9491 37.5738 94.8471L26.5478 81.2961Z" fill="#4D503A"/>
<path d="M7.0099 81.2961C6.1089 80.1901 4.4839 80.0251 3.3799 80.9211C2.2759 81.8191 2.1099 83.4441 3.0109 84.5461L14.0419 98.0991C14.5489 98.7231 15.2939 99.0461 16.0419 99.0461C16.6119 99.0461 17.1889 98.8581 17.6629 98.4721C18.7669 97.5721 18.9349 95.9491 18.0339 94.8471L7.0099 81.2961Z" fill="#4D503A"/>
<path d="M3.625 91.9021C1.623 91.9021 0 93.5271 0 95.5251C0 97.5311 1.623 99.1511 3.625 99.1511C5.625 99.1511 7.251 97.5311 7.251 95.5251C7.251 93.5271 5.626 91.9021 3.625 91.9021Z" fill="#4D503A"/>
<path d="M36.318 81.2961C35.419 80.1901 33.792 80.0251 32.693 80.9211C31.589 81.8191 31.419 83.4441 32.322 84.5461L43.35 98.0991C43.856 98.7231 44.602 99.0461 45.348 99.0461C45.925 99.0461 46.502 98.8581 46.976 98.4721C48.08 97.5721 48.246 95.9491 47.352 94.8471L36.318 81.2961Z" fill="#4D503A"/>
<path d="M30.2609 58.4181C34.3459 63.0341 42.0619 71.3621 50.6769 70.0771C53.2699 69.6921 56.1049 68.2061 58.6659 66.8111L48.9339 49.8831C45.9559 50.5671 42.8189 50.2341 39.4199 47.9611C32.7739 43.5021 27.6549 32.8981 31.4369 26.2901C32.1479 25.0521 32.9349 24.2431 33.7739 23.5191L23.9529 6.44507C20.6739 8.49707 16.4489 11.9151 15.1639 16.1711C13.7249 20.9271 14.8019 26.9781 15.9769 31.6371C18.3699 41.1281 23.1639 50.3821 30.2609 58.4181Z" fill="#D3633D"/>
<path d="M36.1121 20.8951C37.2561 22.8861 39.3401 21.8761 41.8021 20.4571C44.2711 19.0401 45.3391 16.2771 44.1981 14.2811L37.0551 1.86305C35.9111 -0.128949 32.9821 -0.597949 30.5161 0.817051C28.0441 2.23905 26.1301 3.53305 27.2751 5.52905L36.1121 20.8951Z" fill="#D3633D"/>
<path d="M69.2338 57.8231L62.0938 45.406C60.9458 43.41 58.0168 42.9431 55.5488 44.3601C53.0768 45.7791 51.1678 47.0761 52.3128 49.0721L61.1468 64.4321C62.2948 66.4281 64.3748 65.4181 66.8418 63.9981C69.3108 62.5821 70.3828 59.8171 69.2338 57.8231Z" fill="#D3633D"/>
<path d="M54.4551 72.833C54.8571 73.582 55.3981 74.637 55.9341 75.859C57.0071 78.233 57.9951 81.259 57.9681 83.09C57.9231 84.358 57.6911 84.601 57.4221 84.771C57.0601 84.988 56.6311 85.109 56.0011 85.114C54.3281 85.165 51.5391 83.935 49.4011 82.539C48.3201 81.854 47.3771 81.159 46.7111 80.639C46.0491 80.12 45.7001 79.812 45.6961 79.812C44.6231 78.869 43.0001 78.974 42.0561 80.041C41.1141 81.111 41.2201 82.741 42.2891 83.678C42.3551 83.736 44.1171 85.287 46.6431 86.895C49.1921 88.47 52.4141 90.216 56.0001 90.27H56.0211C57.3671 90.27 58.8111 89.963 60.0981 89.174C62.4271 87.766 63.1601 85.185 63.1201 83.092C63.0261 78.606 60.7011 73.637 59.2981 70.984C57.6911 71.792 56.0421 72.471 54.4551 72.833Z" fill="#4D503A"/>
</svg>
